<?xml version="1.0" encoding="UTF-8" standalone="no"?>
<!-- Uploaded to: SVG Repo, www.svgrepo.com, Generator: SVG Repo Mixer Tools -->

<svg
   fill="#000000"
   width="800px"
   height="800px"
   viewBox="0 0 56 56"
   version="1.1"
   id="svg4"
   sodipodi:docname="solana-payments-icon.svg"
   inkscape:version="1.2.2 (b0a8486541, 2022-12-01)"
   xmlns:inkscape="http://www.inkscape.org/namespaces/inkscape"
   xmlns:sodipodi="http://sodipodi.sourceforge.net/DTD/sodipodi-0.dtd"
   xmlns="http://www.w3.org/2000/svg"
   xmlns:svg="http://www.w3.org/2000/svg">
  <defs
     id="defs8" />
  <sodipodi:namedview
     id="namedview6"
     pagecolor="#ffffff"
     bordercolor="#000000"
     borderopacity="0.25"
     inkscape:showpageshadow="2"
     inkscape:pageopacity="0.0"
     inkscape:pagecheckerboard="0"
     inkscape:deskcolor="#d1d1d1"
     showgrid="false"
     inkscape:zoom="0.42531505"
     inkscape:cx="1378.9778"
     inkscape:cy="231.59303"
     inkscape:window-width="1920"
     inkscape:window-height="980"
     inkscape:window-x="0"
     inkscape:window-y="0"
     inkscape:window-maximized="1"
     inkscape:current-layer="svg4" />
  <path
     d="M 26.002388,23.981787 V 7.7691993 c 0,-1.1149041 -0.882607,-2.0440899 -2.044089,-2.0440899 H 7.7922893 c -1.1612841,0 -2.0440899,0.9291858 -2.0440899,2.0440899 V 23.981787 c 0,1.114904 0.8828058,1.997511 2.0440899,1.997511 H 23.958299 c 1.161482,0 2.044089,-0.882607 2.044089,-1.997511 z M 34.039013,9.7667109 H 46.209999 V 21.937697 H 34.039013 Z m 8.640556,8.6405561 v -5.063548 h -5.063547 v 5.063548 z m -24.249212,0 v -5.063548 h -5.110126 v 5.063548 z M 9.7898009,34.062303 H 21.960787 V 46.233289 H 9.7898009 Z M 49.647669,35.6418 V 30.578253 H 44.584122 V 35.6418 Z m -13.982779,0 V 30.578253 H 30.601343 V 35.6418 Z m -17.234533,7.014481 v -5.063548 h -5.110126 v 5.063548 z m 24.249212,0 v -5.063548 h -5.110126 v 5.063548 z m -7.014679,7.014678 v -5.063547 h -5.063547 v 5.063547 z m 13.982779,0 v -5.063547 h -5.063547 v 5.063547 z M 50.251601,23.981787 V 7.7691993 c 0,-1.1149041 -0.882806,-2.0440899 -2.04409,-2.0440899 H 32.041303 c -1.161284,0 -2.043891,0.9291858 -2.043891,2.0440899 V 23.981787 c 0,1.114904 0.882607,1.997511 2.043891,1.997511 h 16.166208 c 1.161284,0 2.04409,-0.882607 2.04409,-1.997511 z M 9.7898009,9.7667109 H 21.960787 V 21.937697 H 9.7898009 Z M 26.002388,48.230801 v -16.21239 c 0,-1.114904 -0.882607,-1.997511 -2.044089,-1.997511 H 7.7922893 c -1.1612841,0 -2.0440899,0.882607 -2.0440899,1.997511 v 16.21239 c 0,1.115102 0.8828058,2.04409 2.0440899,2.04409 H 23.958299 c 1.161482,0 2.044089,-0.928988 2.044089,-2.04409 z"
     id="path2"
     sodipodi:nodetypes="sssssssssccccccccccccccccccccccccccccccccccccccccccccccccccssssssssscccccsssssssss"
     style="stroke-width:1.98205" />
</svg>
